<?xml version="1.0" standalone="no"?><!DOCTYPE svg PUBLIC "-//W3C//DTD SVG 1.1//EN" "http://www.w3.org/Graphics/SVG/1.1/DTD/svg11.dtd"><svg t="1505964173891" class="icon" style="" viewBox="0 0 1024 1024" version="1.1" xmlns="http://www.w3.org/2000/svg" p-id="1003" xmlns:xlink="http://www.w3.org/1999/xlink" width="200" height="200"><defs><style type="text/css"></style></defs><path d="M814.592 527.872c-11.776 0-21.504 9.728-21.504 21.504v327.168h-171.008v-227.328H394.752v227.328H224.256v-327.168c0-11.776-9.728-21.504-21.504-21.504-11.776 0-21.504 9.728-21.504 21.504v369.664h256V691.2h142.336v227.328h256v-369.664c0.512-11.264-9.216-20.992-20.992-20.992z m134.656-8.704L508.928 107.52l-440.32 410.624c-8.704 8.192-9.216 21.504-1.024 30.208 8.192 8.704 21.504 9.216 30.208 1.024l411.136-383.488 411.136 384.512c4.096 4.096 9.216 5.632 14.336 5.632 5.632 0 11.264-2.048 15.36-6.656 8.192-8.704 7.68-22.016-0.512-30.208z m-284.16-296.96h128v113.664c0 11.776 9.728 21.504 21.504 21.504 11.776 0 21.504-9.728 21.504-21.504V179.2h-171.008c-11.776 0-21.504 9.728-21.504 21.504 0.512 11.776 9.728 21.504 21.504 21.504z" fill="#333333" p-id="1004"></path><path d="M832.512 912.896s-156.16 1.024-245.76 0c0.512-24.576-2.56-185.344-3.072-223.744-52.736-5.632-85.504 1.024-148.48 1.536-1.536 51.712-2.048 154.624-4.608 222.208-60.928 1.536-206.848-1.024-240.64 0.512-5.632 0-4.608-194.048-7.68-358.4H84.48l424.448-446.464 426.496 448h-102.912v356.352z" fill="#333333" p-id="1005"></path></svg>